{"title":"Miss March.2009.x264.AC3(5.1).Multi_Sub.mkv","uid":5447586,"size":1254905055,"categoryP":"video","categoryS":"movies","magnet":"?xt=urn:btih:e67537b480b9d7a687d823cae095d25de28853c7&amp;dn=Miss+March.2009.x264.AC3%285.1%29.Multi_Sub.mkv&amp;tr=udp%3A%2F%2Ftracker.openbittorrent.com%3A80&amp;tr=udp%3A%2F%2Fopen.demonii.com%3A1337&amp;tr=udp%3A%2F%2Ftracker.coppersurfer.tk%3A6969&amp;tr=udp%3A%2F%2Fexodus.desync.com%3A6969","seeders":1,"leechers":0,"uploader":"Zen_Bud","files":-1,"time":1269077053,"description":"General\nComplete name                    : Miss March.mkv\nFormat                           : Matroska\nFile size                        : 1.17 GiB\nDuration                         : 1h 29mn\nOverall bit rate                 : 1 865 Kbps\nWriting application              : HandBrake 0.9.4\n\nVideo\nID                               : 1\nFormat                           : AVC\nDuration                         : 1h 29mn\nBit rate                         : 1 380 Kbps\nWidth                            : 720 pixels\nHeight                           : 552 pixels\nDisplay aspect ratio             : 1.855\nResolution                       : 8 bits\nColorimetry                      : 4:2:0\nScan type                        : Progressive\nBits/(Pixel*Frame)               : 0.139\nStream size                      : 885 MiB (74%)\nWriting library                  : x264 core 79\n\nAudio\nID                               : 2\nFormat                           : AC-3\nFormat/Info                      : Audio Coding 3\nCodec ID                         : A_AC3\nDuration                         : 1h 29mn\nBit rate mode                    : Constant\nBit rate                         : 448 Kbps\nChannel(s)                       : 6 channels\nChannel positions                : Front: L C R, Side: L R, LFE\nSampling rate                    : 48.0 KHz\nStream size                      : 287 MiB (24%)\nLanguage                         : English\n\nText #1\nLanguage                         : English\n\nText #2\nLanguage                         : Danish\n\nText #3\nLanguage                         : Finnish\n\nText #4\nLanguage                         : German\n\nText #5\nLanguage                         : Norwegian\n\nText #6\nLanguage                         : Spanish\n\nText #7\nLanguage                         : Swedish\n\n","torrent":{"xt":"urn:btih:e67537b480b9d7a687d823cae095d25de28853c7","amp;dn":"Miss+March.2009.x264.AC3%285.1%29.Multi_Sub.mkv","amp;tr":["udp%3A%2F%2Ftracker.openbittorrent.com%3A80","udp%3A%2F%2Fopen.demonii.com%3A1337","udp%3A%2F%2Ftracker.coppersurfer.tk%3A6969","udp%3A%2F%2Fexodus.desync.com%3A6969"],"infoHash":"e67537b480b9d7a687d823cae095d25de28853c7","infoHashBuffer":{"type":"Buffer","data":[230,117,55,180,128,185,215,166,135,216,35,202,224,149,210,93,226,136,83,199]},"announce":[],"urlList":[]}}